<svg xmlns="http://www.w3.org/2000/svg" viewBox="0 0 64 64"><g id="Layer_31" data-name="Layer 31"><path d="M21,47H3a2,2,0,0,1-2-2V33.7a2,2,0,0,1,.438-1.25L9,23H21Z" style="fill:#f98658"/><path d="M4,33.7H4a2,2,0,0,1,.438-1.249L12,23H9L1.438,32.452A2,2,0,0,0,1,33.7V45a2,2,0,0,0,2,2H21V44H14.3A10.3,10.3,0,0,1,4,33.7Z" style="fill:#d8633f"/><path d="M8.514,13.3,1.94,17.412a2,2,0,0,0-.94,1.7V21a2,2,0,0,0,2,2H21V47H61a2,2,0,0,0,2-2V15a2,2,0,0,0-2-2H9.574A1.994,1.994,0,0,0,8.514,13.3Z" style="fill:#f8c460"/><path d="M24,22h0a2,2,0,0,0-2-2H6a2,2,0,0,1-2-2V16.125L1.94,17.412a2,2,0,0,0-.94,1.7V21a2,2,0,0,0,2,2H21V47H61a2,2,0,0,0,2-2V44H46A22,22,0,0,1,24,22Z" style="fill:#faaf42"/><path d="M27,21h8a2,2,0,0,1,2,2V47a0,0,0,0,1,0,0H25a0,0,0,0,1,0,0V23A2,2,0,0,1,27,21Z" style="fill:#f98658"/><path d="M25,28.574V47H37V42.074A22.059,22.059,0,0,1,25,28.574Z" style="fill:#d8633f"/><rect x="41" y="21" width="14" height="8" style="fill:#dbe6fd"/><path d="M41,21v2h8a4,4,0,0,1,4,4v2h2V21Z" style="fill:#bbcff2"/><rect x="13" y="16" width="8" height="4" style="fill:#dbe6fd"/><path d="M13,16v2h4a2,2,0,0,1,2,2h2V16Z" style="fill:#bbcff2"/><path d="M12,39a6.948,6.948,0,0,0-6.92,8H18.92A6.948,6.948,0,0,0,12,39Z" style="fill:#d8633f"/><path d="M52,39a6.948,6.948,0,0,0-6.92,8H58.92A6.948,6.948,0,0,0,52,39Z" style="fill:#faaf42"/><circle cx="12" cy="46" r="5" style="fill:#7a838b"/><path d="M15,48a5,5,0,0,1-5-5,4.947,4.947,0,0,1,.313-1.687,4.988,4.988,0,1,0,6.374,6.374A4.947,4.947,0,0,1,15,48Z" style="fill:#5d6972"/><circle cx="12" cy="46" r="2" style="fill:#dbe6fd"/><circle cx="52" cy="46" r="5" style="fill:#7a838b"/><path d="M55,48a5,5,0,0,1-5-5,4.947,4.947,0,0,1,.313-1.687,4.988,4.988,0,1,0,6.374,6.374A4.947,4.947,0,0,1,55,48Z" style="fill:#5d6972"/><circle cx="52" cy="46" r="2" style="fill:#dbe6fd"/><path d="M18,26H11.4a2,2,0,0,0-1.562.751L4.042,34H18Z" style="fill:#dbe6fd"/><path d="M11.4,26a2,2,0,0,0-1.562.751l-1.1,1.375A1.979,1.979,0,0,1,9.4,28H12a4,4,0,0,1,4,4v2h2V26Z" style="fill:#bbcff2"/><rect x="28" y="24" width="6" height="8" style="fill:#dbe6fd"/><path d="M28,24v2h0a4,4,0,0,1,4,4v2h2V24Z" style="fill:#bbcff2"/><path d="M60,18.5a.5.5,0,0,1-.5-.5V16a.5.5,0,0,1,1,0v2A.5.5,0,0,1,60,18.5Z" style="fill:#fff"/></g></svg>